<?xml version="1.0" standalone="no"?>
<!DOCTYPE svg PUBLIC "-//W3C//DTD SVG 20010904//EN"
 "http://www.w3.org/TR/2001/REC-SVG-20010904/DTD/svg10.dtd">
<svg version="1.0" xmlns="http://www.w3.org/2000/svg"
 width="220.000000pt" height="231.000000pt" viewBox="0 0 220.000000 231.000000"
 preserveAspectRatio="xMidYMid meet">

<g transform="translate(0.000000,231.000000) scale(0.100000,-0.100000)"
fill="#6d1dec" stroke="none">
<path d="M25 2278 c-3 -7 -4 -515 -3 -1128 l3 -1115 197 -3 198 -2 2 927 3
928 205 0 204 0 188 -320 c104 -176 202 -341 218 -367 l29 -48 196 0 c157 0
196 3 193 13 -9 36 -603 1109 -618 1117 -30 16 -1009 13 -1015 -2z"/>
<path d="M1779 1753 c-1 -296 -1 -702 -1 -903 1 -201 -1 -377 -4 -393 l-6 -27
-203 0 -203 0 -215 357 -214 358 -196 3 c-109 1 -197 0 -197 -3 0 -3 7 -20 16
-38 15 -29 495 -899 565 -1023 l29 -51 316 -6 c175 -4 404 -7 510 -7 192 0
194 0 199 23 3 12 4 521 3 1132 l-3 1110 -197 3 -198 2 -1 -537z"/>
</g>
</svg>
